<svg xmlns="http://www.w3.org/2000/svg" width="27.655" height="26" viewBox="0 0 27.655 26">
  <metadata><?xpacket begin="﻿" id="W5M0MpCehiHzreSzNTczkc9d"?>
<x:xmpmeta xmlns:x="adobe:ns:meta/" x:xmptk="Adobe XMP Core 5.6-c138 79.159824, 2016/09/14-01:09:01        ">
   <rdf:RDF xmlns:rdf="http://www.w3.org/1999/02/22-rdf-syntax-ns#">
      <rdf:Description rdf:about=""/>
   </rdf:RDF>
</x:xmpmeta>
                                                                                                    
                                                                                                    
                                                                                                    
                                                                                                    
                                                                                                    
                                                                                                    
                                                                                                    
                                                                                                    
                                                                                                    
                                                                                                    
                                                                                                    
                                                                                                    
                                                                                                    
                                                                                                    
                                                                                                    
                                                                                                    
                                                                                                    
                                                                                                    
                                                                                                    
                                                                                                    
                           
<?xpacket end="w"?></metadata>
<defs>
    <style>
      .cls-1 {
        fill: #007437;
        fill-rule: evenodd;
      }
    </style>
  </defs>
  <path id="Shape_1_copy_5" data-name="Shape 1 copy 5" class="cls-1" d="M996.373,1201.85l0.844,0.88,5.873-6.14,5.87,6.14,0.84-.88-6.71-7.02Zm0-8.12,0.844,0.88,5.873-6.14,5.87,6.14,0.84-.88-6.71-7.02Zm0-7.71,0.844,0.89,5.873-6.14,5.87,6.14,0.84-.89-6.71-7.02Zm14.227,15.83,0.84,0.88,5.87-6.14,5.88,6.14,0.84-.88-6.72-7.02Zm0-8.12,0.84,0.88,5.87-6.14,5.88,6.14,0.84-.88-6.72-7.02Zm0-7.71,0.84,0.89,5.87-6.14,5.88,6.14,0.84-.89-6.72-7.02Zm6.4-6.02h1v25h-1v-25Zm-14,0h1v25h-1v-25Z" transform="translate(-996.375 -1179)"/>
</svg>
